<svg width="31" height="30" viewBox="0 0 31 30" fill="none" xmlns="http://www.w3.org/2000/svg">
<g clip-path="url(#clip0_1_269)">
<path d="M15.7019 0.0462036C7.48888 0.0462036 0.807007 6.72808 0.807007 14.9411C0.807007 23.1541 7.48888 29.836 15.7019 29.836C23.9149 29.836 30.5968 23.1541 30.5968 14.9411C30.5968 6.72808 23.9149 0.0462036 15.7019 0.0462036ZM15.7019 27.478C8.78893 27.478 3.16506 21.8537 3.16506 14.9411C3.16506 8.02853 8.78893 2.40425 15.7019 2.40425C22.6145 2.40425 28.2388 8.02894 28.2388 14.9415C28.2388 21.8541 22.6145 27.478 15.7019 27.478Z" fill="#7653FC"/>
<path d="M15.7019 17.584C11.5129 17.584 7.59346 19.6846 4.66632 23.4984L6.53703 24.9336C9.00783 21.7149 12.2627 19.9421 15.7019 19.9421C19.1411 19.9421 22.396 21.7149 24.8664 24.9336L26.7371 23.4984C23.81 19.6846 19.8909 17.584 15.7019 17.584Z" fill="#7653FC"/>
<path d="M15.7019 5.39105C12.3213 5.39105 9.57104 8.159 9.57104 11.5612C9.57104 14.9634 12.3213 17.7314 15.7019 17.7314C19.0825 17.7314 21.8328 14.9635 21.8328 11.5613C21.8328 8.15906 19.0825 5.39105 15.7019 5.39105ZM15.7019 15.3734C13.6218 15.3734 11.9291 13.6634 11.9291 11.5612C11.9291 9.45899 13.6218 7.74904 15.7019 7.74904C17.7821 7.74904 19.4748 9.4594 19.4748 11.5612C19.4748 13.663 17.7821 15.3734 15.7019 15.3734Z" fill="#7653FC"/>
</g>
<defs>
<clipPath id="clip0_1_269">
<rect width="29.7898" height="29.7898" fill="white" transform="translate(0.807007 0.0462036)"/>
</clipPath>
</defs>
</svg>
