<svg width="20" height="21" viewBox="0 0 20 21" fill="none" xmlns="http://www.w3.org/2000/svg">
<circle cx="10.0115" cy="10.5341" r="9.92994" fill="#BBBBBB"/>
<path d="M15.9382 9.07847C15.8598 8.82669 15.6458 8.64843 15.3936 8.62462L11.9538 8.29874L10.5944 4.9776C10.494 4.7336 10.2657 4.57611 10.0115 4.57611C9.75727 4.57611 9.52881 4.7336 9.42908 4.9776L8.06966 8.29874L4.62935 8.62462C4.37715 8.6489 4.1636 8.82716 4.08469 9.07847C4.00623 9.33025 4.07869 9.60641 4.26942 9.78096L6.86962 12.1602L6.10295 15.6838C6.04686 15.9428 6.14322 16.2108 6.34923 16.3661C6.45996 16.4501 6.59006 16.492 6.72061 16.492C6.8328 16.492 6.94507 16.4609 7.04535 16.3983L10.0115 14.5476L12.977 16.3983C13.1946 16.534 13.4681 16.5215 13.6737 16.3661C13.8797 16.2108 13.9761 15.9428 13.92 15.6838L13.1533 12.1602L15.7535 9.78096C15.9442 9.60641 16.0167 9.33081 15.9382 9.07847Z" fill="white"/>
</svg>
