<svg width="16" height="16" viewBox="0 0 16 16" fill="none" xmlns="http://www.w3.org/2000/svg">
<path d="M15.078 13.906L11.4061 10.219C12.3502 9.13549 12.8675 7.77218 12.8675 6.35292C12.8675 3.03696 10.0731 0.339111 6.63853 0.339111C3.20392 0.339111 0.409546 3.03696 0.409546 6.35292C0.409546 9.66889 3.20392 12.3667 6.63853 12.3667C7.92793 12.3667 9.15666 11.9913 10.2072 11.2785L13.9069 14.9935C14.0616 15.1485 14.2696 15.234 14.4925 15.234C14.7034 15.234 14.9036 15.1564 15.0555 15.0152C15.3783 14.7153 15.3886 14.2179 15.078 13.906ZM6.63853 1.90793C9.17724 1.90793 11.2426 3.9019 11.2426 6.35292C11.2426 8.80394 9.17724 10.7979 6.63853 10.7979C4.09981 10.7979 2.0345 8.80394 2.0345 6.35292C2.0345 3.9019 4.09981 1.90793 6.63853 1.90793Z" fill="white"/>
</svg>
